<?xml version="1.0" encoding="UTF-8"?>
<svg xmlns="http://www.w3.org/2000/svg" shape-rendering="crispEdges" viewBox="0 -0.5 34 45">

<path d="M0 0h34M0 1h34M0 2h34M0 3h34M0 4h4M28 4h6M0 5h4M28 5h6M0 6h4M28 6h6M0 7h4M28 7h6M0 8h4M28 8h6M0 9h4M28 9h6M0 10h4M28 10h6M0 11h4M28 11h6M0 12h4M28 12h6M0 13h4M28 13h6M0 14h4M28 14h6M0 15h4M28 15h6M0 16h4M28 16h6M0 17h4M28 17h6M0 18h4M28 18h6M0 19h4M28 19h6M0 20h4M32 20h2M0 21h4M32 21h2M0 22h4M32 22h2M0 23h4M32 23h2M32 24h2M32 25h2M32 26h2M32 27h2M32 28h2M32 29h2M32 30h2M32 31h2M32 32h2M32 33h2M32 34h2M32 35h2M28 36h6M28 37h6M28 38h6M28 39h6M0 40h4M24 40h10M0 41h4M24 41h10M0 42h4M24 42h10M0 43h4M24 43h10M0 44h34" stroke="#ffd284"/>
<path d="M4 4h4M4 5h4M4 6h4M4 7h4M24 12h4M24 13h4M24 14h4M24 15h4M4 16h4M4 17h4M4 18h4M4 19h4" stroke="#e4ae6e"/>
<path d="M8 4h20M8 5h20M8 6h20M8 7h20M8 8h4M24 8h4M8 9h4M24 9h4M8 10h4M24 10h4M8 11h4M24 11h4M12 12h4M20 12h4M12 13h4M20 13h4M12 14h4M20 14h4M12 15h4M20 15h4M8 16h4M24 16h4M8 17h4M24 17h4M8 18h4M24 18h4M8 19h4M24 19h4M4 20h4M28 20h4M4 21h4M28 21h4M4 22h4M28 22h4M4 23h4M28 23h4M4 24h4M28 24h4M4 25h4M28 25h4M4 26h4M28 26h4M4 27h4M28 27h4M4 28h4M28 28h4M4 29h4M28 29h4M4 30h4M28 30h4M4 31h4M28 31h4M4 32h4M28 32h4M4 33h4M28 33h4M4 34h4M28 34h4M4 35h4M28 35h4M8 36h4M24 36h4M8 37h4M24 37h4M8 38h4M24 38h4M8 39h4M24 39h4M12 40h12M12 41h12M12 42h12M12 43h12" stroke="#63003e"/>
<path d="M4 8h4M4 9h4M4 10h4M4 11h4M4 12h8M4 13h8M4 14h8M4 15h8M0 24h4M0 25h4M0 26h4M0 27h4M0 28h4M0 29h4M0 30h4M0 31h4M0 32h4M0 33h4M0 34h4M0 35h4M0 36h8M0 37h8M0 38h8M0 39h8M4 40h8M4 41h8M4 42h8M4 43h8" stroke="#d5864f"/>
<path d="M12 8h4M12 9h4M12 10h4M12 11h4M12 16h4M12 17h4M12 18h4M12 19h4M8 24h4M8 25h4M8 26h4M8 27h4M8 28h4M8 29h4M8 30h4M8 31h4M12 32h4M24 32h4M12 33h4M24 33h4M12 34h4M24 34h4M12 35h4M24 35h4" stroke="#dc7b05"/>
<path d="M16 8h4M16 9h4M16 10h4M16 11h4M20 20h4M20 21h4M20 22h4M20 23h4M20 24h4M20 25h4M20 26h4M20 27h4" stroke="#fff000"/>
<path d="M20 8h4M20 9h4M20 10h4M20 11h4M16 16h8M16 17h8M16 18h8M16 19h8M12 20h8M24 20h4M12 21h8M24 21h4M12 22h8M24 22h4M12 23h8M24 23h4M12 24h8M24 24h4M12 25h8M24 25h4M12 26h8M24 26h4M12 27h8M24 27h4M12 28h16M12 29h16M12 30h16M12 31h16M16 32h8M16 33h8M16 34h8M16 35h8" stroke="#fcb700"/>
<path d="M16 12h4M16 13h4M16 14h4M16 15h4M8 20h4M8 21h4M8 22h4M8 23h4M8 32h4M8 33h4M8 34h4M8 35h4M12 36h12M12 37h12M12 38h12M12 39h12" stroke="#b14e05"/>
</svg>