<?xml version="1.0" encoding="UTF-8"?>
<svg xmlns="http://www.w3.org/2000/svg" shape-rendering="crispEdges" viewBox="0 -0.5 32 32">

<path d="M0 0h4M28 0h4M0 1h4M28 1h4M0 2h4M28 2h4M0 3h4M28 3h4M8 8h8M8 9h8M8 10h8M8 11h8M4 12h8M4 13h8M4 14h8M4 15h8M4 16h4M20 16h4M4 17h4M20 17h4M4 18h4M20 18h4M4 19h4M20 19h4M16 20h8M16 21h8M16 22h8M16 23h8M12 24h8M12 25h8M12 26h8M12 27h8M0 28h4M28 28h4M0 29h4M28 29h4M0 30h4M28 30h4M0 31h4M28 31h4" stroke="#ffd284"/>
<path d="M4 0h4M24 0h4M4 1h4M24 1h4M4 2h4M24 2h4M4 3h4M24 3h4M0 4h4M28 4h4M0 5h4M28 5h4M0 6h4M28 6h4M0 7h4M28 7h4M0 24h4M28 24h4M0 25h4M28 25h4M0 26h4M28 26h4M0 27h4M28 27h4M4 28h4M24 28h4M4 29h4M24 29h4M4 30h4M24 30h4M4 31h4M24 31h4" stroke="#d5864f"/>
<path d="M8 0h16M8 1h16M8 2h16M8 3h16M4 4h8M20 4h8M4 5h8M20 5h8M4 6h8M20 6h8M4 7h8M20 7h8M0 8h8M16 8h8M28 8h4M0 9h8M16 9h8M28 9h4M0 10h8M16 10h8M28 10h4M0 11h8M16 11h8M28 11h4M0 12h4M12 12h8M28 12h4M0 13h4M12 13h8M28 13h4M0 14h4M12 14h8M28 14h4M0 15h4M12 15h8M28 15h4M0 16h4M8 16h8M28 16h4M0 17h4M8 17h8M28 17h4M0 18h4M8 18h8M28 18h4M0 19h4M8 19h8M28 19h4M0 20h12M24 20h8M0 21h12M24 21h8M0 22h12M24 22h8M0 23h12M24 23h8M4 24h4M20 24h8M4 25h4M20 25h8M4 26h4M20 26h8M4 27h4M20 27h8M8 28h16M8 29h16M8 30h16M8 31h16" stroke="#dd003b"/>
<path d="M12 4h8M12 5h8M12 6h8M12 7h8M24 12h4M24 13h4M24 14h4M24 15h4M24 16h4M24 17h4M24 18h4M24 19h4" stroke="#e4ae6e"/>
<path d="M24 8h4M24 9h4M24 10h4M24 11h4M20 12h4M20 13h4M20 14h4M20 15h4M16 16h4M16 17h4M16 18h4M16 19h4M12 20h4M12 21h4M12 22h4M12 23h4M8 24h4M8 25h4M8 26h4M8 27h4" stroke="#bc004a"/>
</svg>