<?xml version="1.0" encoding="UTF-8"?>
<svg xmlns="http://www.w3.org/2000/svg" shape-rendering="crispEdges" viewBox="0 -0.5 40 40">

<path d="M16 0h4M16 1h4M16 2h4M16 3h4M16 4h4M16 5h4M16 6h4M16 7h4M20 8h4M20 9h4M20 10h4M20 11h4M16 12h16M8 13h24M8 14h24M8 15h24M4 16h4M32 16h4M4 17h4M32 17h4M4 18h4M32 18h4M4 19h4M32 19h4M0 20h4M8 20h4M36 20h4M0 21h4M8 21h4M36 21h4M0 22h4M8 22h4M36 22h4M0 23h4M8 23h4M36 23h4M0 24h16M36 24h4M0 25h16M36 25h4M0 26h16M36 26h4M0 27h16M36 27h4M0 28h4M8 28h4M36 28h4M0 29h4M8 29h4M36 29h4M0 30h4M8 30h4M36 30h4M0 31h4M8 31h4M36 31h4M0 32h4M16 32h8M36 32h4M0 33h4M16 33h8M36 33h4M0 34h4M16 34h8M36 34h4M0 35h4M16 35h8M36 35h4M4 36h12M24 36h12M4 37h12M24 37h12M4 38h12M24 38h12M4 39h12M24 39h12" stroke="#3d3d3d"/>
<path d="M0 16h4M36 16h4M0 17h4M36 17h4M0 18h4M36 18h4M0 19h4M36 19h4M0 36h4M36 36h4M0 37h4M36 37h4M0 38h4M36 38h4M0 39h4M36 39h4" stroke="#dc7b05"/>
<path d="M8 16h4M28 16h4M8 17h4M28 17h4M8 18h4M28 18h4M8 19h4M28 19h4M4 20h4M12 20h4M24 20h4M32 20h4M4 21h4M12 21h4M24 21h4M32 21h4M4 22h4M12 22h4M24 22h4M32 22h4M4 23h4M12 23h4M24 23h4M32 23h4M28 24h4M28 25h4M28 26h4M28 27h4M4 28h4M12 28h4M24 28h4M32 28h4M4 29h4M12 29h4M24 29h4M32 29h4M4 30h4M12 30h4M24 30h4M32 30h4M4 31h4M12 31h4M24 31h4M32 31h4M4 32h12M24 32h12M4 33h12M24 33h12M4 34h12M24 34h12M4 35h12M24 35h12" stroke="#6b6b6b"/>
<path d="M12 16h16M12 17h16M12 18h16M12 19h16M16 20h8M16 21h8M16 22h8M16 23h8M16 24h8M16 25h8M16 26h8M16 27h8M16 28h8M16 29h8M16 30h8M16 31h8" stroke="#8d9293"/>
<path d="M28 20h4M28 21h4M28 22h4M28 23h4" stroke="#0088ff"/>
<path d="M24 24h4M24 25h4M24 26h4M24 27h4" stroke="#42c436"/>
<path d="M32 24h4M32 25h4M32 26h4M32 27h4" stroke="#dd003b"/>
<path d="M28 28h4M28 29h4M28 30h4M28 31h4" stroke="#fff000"/>
<path d="M16 36h8M16 37h8M16 38h8M16 39h8" stroke="#e4ae6e"/>
</svg>